<svg xmlns="http://www.w3.org/2000/svg" width="150.952" height="90.234" viewBox="0 0 178.952 104.234">
  <g id="Group_1653" data-name="Group 1653" transform="translate(-87.673 -98.894)">
    <g id="Group_1334" data-name="Group 1334" transform="translate(194.44 98.894)">
      <path id="Path_345" data-name="Path 345" d="M485.706,149.824a29.385,29.385,0,0,1,3.341-12.089c3.846-7.249,8.994-9.834,8.994-9.834H488.5s-5.63,19.22-2.794,21.923" transform="translate(-426.147 -115.814)" fill="#ffa800"/>
      <path id="Path_346" data-name="Path 346" d="M485.472,141.646a48.613,48.613,0,0,1,3.619-16.548c3.744-8.558,9.008-10.938,9.008-10.938l-9.008-.28s-7.111,24.437-3.619,27.766" transform="translate(-425.914 -107.635)" fill="#5f3f91"/>
      <path id="Path_347" data-name="Path 347" d="M350.149,98.894c-6.718,9.557-6.248,29.574-6.248,29.574h8.424a99.465,99.465,0,0,1,2.29-20.593,1.59,1.59,0,0,1,1.527-1.278l38.37-.1a.89.89,0,0,1,.856,1.015l-2.509,22.7s10.667,2.924,10.667,9.459l.088-9.459h.015c-.237-24.375,10.351-31.316,10.351-31.316Z" transform="translate(-343.894 -98.894)" fill="#ffa800"/>
      <path id="Path_348" data-name="Path 348" d="M393.456,291.078c0,.638-.007,1.457-.01,2.373a1.4,1.4,0,0,1-1.4,1.4H354.983a1.4,1.4,0,0,1-1.4-1.4v-2.358a1.4,1.4,0,0,0-1.4-1.4H345.3a1.4,1.4,0,0,0-1.4,1.4v9.718a1.539,1.539,0,0,0,.008.157c1.356,13.313,12.776,13.454,12.776,13.454h33.885c12.508,0,12.963-13.628,12.963-13.628v-9.7a1.4,1.4,0,0,0-1.4-1.4h-7.271A1.4,1.4,0,0,0,393.456,291.078Z" transform="translate(-343.895 -210.183)" fill="#ffa800"/>
      <path id="Path_349" data-name="Path 349" d="M425.651,338.379l-.3,0" transform="translate(-391.41 -238.586)" fill="#fff"/>
    </g>
    <g id="Group_1338" data-name="Group 1338" transform="translate(87.673 117.663)">
      <g id="Group_1337" data-name="Group 1337" transform="translate(0 0)">
        <g id="Group_1336" data-name="Group 1336">
          <g id="Group_1335" data-name="Group 1335">
            <path id="Path_350" data-name="Path 350" d="M125.349,191.541h0a25.091,25.091,0,0,0-9.839-1.679,29.526,29.526,0,0,0-5.974.735,27.631,27.631,0,0,1-4.965.735c-2.188,0-3.286-.659-3.286-1.963,0-.76.738-1.485,2.213-2.194a12.884,12.884,0,0,1,2.559-1.055l1.954.292a32.04,32.04,0,0,0,3.438.244,18.2,18.2,0,0,0,12.326-4.341.041.041,0,0,0,.014-.03l0-.66c0-9.395,6.3-16.469,6.3-16.469.018-.018.037-.035.054-.053a19.218,19.218,0,0,0-2.886-9.154l5.678-4.287-8.261-7.726L120,149.553a22.823,22.823,0,0,0-11.508-2.662,21.081,21.081,0,0,0-14.8,5.54,18.217,18.217,0,0,0-6.011,14q0,10.738,8.739,16.59h0a12.735,12.735,0,0,0-4.784,3.689,8.053,8.053,0,0,0-2.044,5.117q0,9.114,12.319,9.112a54.49,54.49,0,0,0,5.966-.494,53.03,53.03,0,0,1,5.97-.491q7.4,0,7.4,4.677,0,2.748-3.337,4.331a20.1,20.1,0,0,1-8.506,1.571,19.862,19.862,0,0,1-13.939-5.9l-7.548,9.594a34.565,34.565,0,0,0,21.253,7.131q9.836,0,16.806-4.547a14.207,14.207,0,0,0,6.971-12.523,20.236,20.236,0,0,0-.205-2.912c-.282-.184-.56-.374-.83-.574C131.9,200.794,127.7,198.2,125.349,191.541Zm-22.925-31.9a8.909,8.909,0,0,1,6.685-2.664,8.156,8.156,0,0,1,6.375,2.759,9.755,9.755,0,0,1,2.466,6.741,11.521,11.521,0,0,1-2.3,7.58,8.019,8.019,0,0,1-6.543,2.758,8.535,8.535,0,0,1-6.751-2.836,10.859,10.859,0,0,1-2.509-7.5A9.4,9.4,0,0,1,102.424,159.643Z" transform="translate(-87.673 -143.936)" fill="#fff"/>
          </g>
        </g>
      </g>
    </g>
    <path id="Path_351" data-name="Path 351" d="M304.695,183.338q-4-4.115-11.2-4.118a19.03,19.03,0,0,0-6.753,1.268,13,13,0,0,0-5.259,3.395q-4.352-4.667-12.907-4.663a13.955,13.955,0,0,0-10.811,4.581l-2.047-3.775h-6.911v12.622a19.445,19.445,0,0,0-4.2-7.48q-5.422-5.952-15.23-5.947-9.325,0-15.014,6.19t-5.686,16.037a26.2,26.2,0,0,0,2.741,12.4,14.5,14.5,0,0,1-8.134,2.39q-12.9,0-12.9-13.536,0-6.72,3.313-10.51a11.365,11.365,0,0,1,9.026-3.8,17.035,17.035,0,0,1,3.748.386l5.308-7.256a22.092,22.092,0,0,0-8.335-1.535q-10.9,0-17.2,6.274s-6.3,6.864-6.3,15.98c-.075,13.689,8.109,18.6,8.109,18.6q5.311,3.8,13.386,3.8a36.466,36.466,0,0,0,7.735-.723,25.647,25.647,0,0,0,7.655-3.454l-.185-.386q5.009,3.8,12.735,3.8,9.6,0,15.129-6.073a19.966,19.966,0,0,0,4.3-7.624v12.891h10.047V192.119a9.566,9.566,0,0,1,3.23-3.095,7.984,7.984,0,0,1,9.671.46,6.653,6.653,0,0,1,1.971,5.049v28.534h10.047V192a7.648,7.648,0,0,1,2.927-3.052,7.959,7.959,0,0,1,4.346-1.328q7.6,0,7.6,8.481v26.964h10.045V194.653q0-7.2-4-11.315m-74.907,31.528c-7.322,0-11.027-6.081-11.027-12.589,0-6.418,3.792-12.665,11.027-12.665,6.753,0,11.038,6.247,11.038,12.665,0,6.508-3.707,12.589-11.038,12.589" transform="translate(-53.822 -46.854)" fill="#fff"/>
  </g>
</svg>
